<svg width="500" height="500" viewBox="0 0 500 500" fill="none" xmlns="http://www.w3.org/2000/svg">
<path d="M500 237.626V405.936C500 430.883 490.09 454.809 472.449 472.449C454.809 490.09 430.883 500 405.936 500H237.626L500 237.626Z" fill="#FF9874"/>
<path d="M262.374 0L1.90735e-06 262.374V94.0639C1.90735e-06 69.1166 9.91027 45.1911 27.5507 27.5507C45.1911 9.91027 69.1166 0 94.0639 0H262.374Z" fill="#F8D9CE"/>
<path d="M500 94.0639V237.626L237.626 500H94.0639C69.1166 500 45.1911 490.09 27.5507 472.449C9.91027 454.809 1.90735e-06 430.883 1.90735e-06 405.936V262.374L262.374 0H405.936C418.289 0 430.52 2.43303 441.933 7.16019C453.345 11.8873 463.715 18.816 472.449 27.5507C481.184 36.2853 488.113 46.6549 492.84 58.0672C497.567 69.4796 500 81.7113 500 94.0639V94.0639Z" fill="#F7BDA8"/>
</svg>
